<svg width="787" height="552" viewBox="0 0 787 552" fill="none" xmlns="http://www.w3.org/2000/svg">
<path d="M564.5 0.5H222.5V65.5H564.5V0.5Z" stroke="white"/>
<path d="M735.5 0.5H564.5V43.5H735.5V0.5Z" stroke="white"/>
<path d="M735.5 70.5H565.5V113.5H735.5V70.5Z" fill="#D9D9D9" stroke="white"/>
<path d="M735.5 161.5H565.5V182.5H735.5V161.5Z" fill="#D9D9D9" stroke="white"/>
<path d="M347 20.6499H373.05V28.1499H355.6V32.4499H364C371.35 32.4499 375.3 37.3499 375.3 43.1999C375.3 49.0499 371.35 53.9999 364 53.9999H347V20.6499ZM362.95 39.9499H355.6V46.4999H362.95C365 46.4999 366.55 45.2999 366.55 43.1999C366.55 41.1499 365 39.9499 362.95 39.9499ZM411.529 53.9999H401.779L400.129 49.1999H386.979L385.329 53.9999H375.579L388.129 20.6499H398.929L411.529 53.9999ZM397.779 41.6999L393.529 29.1499L389.279 41.6999H397.779ZM422.592 53.9999H413.992V20.6499H430.692C438.192 20.6499 442.292 25.6999 442.292 31.7499C442.292 37.7499 438.192 42.7999 430.692 42.7999H422.592V53.9999ZM429.542 35.2999C431.842 35.2999 433.542 33.9999 433.542 31.7499C433.542 29.4499 431.842 28.1499 429.542 28.1499H422.592V35.2999H429.542Z" fill="white"/>
<path d="M354.609 514.36C348.459 514.36 343.779 510.16 343.779 504.01C343.779 497.83 348.459 493.66 354.609 493.66C359.439 493.66 362.019 496.39 363.339 499.03L358.899 501.13C358.239 499.54 356.529 498.22 354.609 498.22C351.339 498.22 349.029 500.74 349.029 504.01C349.029 507.28 351.339 509.8 354.609 509.8C356.529 509.8 358.239 508.48 358.899 506.89L363.339 508.99C362.049 511.57 359.439 514.36 354.609 514.36ZM380.81 517.69V514H365.57V493.99H370.73V509.5H379.04V493.99H384.2V509.5H386V517.69H380.81ZM402.887 514H388.217V493.99H402.887V498.49H393.377V501.61H402.677V506.11H393.377V509.5H402.887V514ZM424.513 514H419.353V505.96H411.043V514H405.883V493.99H411.043V501.46H419.353V493.99H424.513V514ZM447.559 514H441.709L440.719 511.12H432.829L431.839 514H425.989L433.519 493.99H439.999L447.559 514ZM439.309 506.62L436.759 499.09L434.209 506.62H439.309Z" fill="white"/>
<path d="M59.8908 57H53.5608L48.3108 49.47L46.9608 51.15V57H41.8008V36.99H46.9608V45.21L53.1108 36.99H59.4708L51.7008 46.35L59.8908 57ZM64.5197 57.36C62.5997 57.36 60.6797 56.82 59.4497 55.83L61.4897 51.81C62.1797 52.32 63.0797 52.8 64.0697 52.8C65.3597 52.8 65.9297 52.32 66.5297 51.3L59.2997 36.99H65.1197L69.4397 46.35L73.7897 36.99H79.6097L71.4797 53.07C70.2197 55.53 68.2097 57.36 64.5197 57.36ZM99.8679 57H93.7779L89.4279 50.28L85.0779 57H78.9579L85.9479 46.74L79.4079 36.99H85.4979L89.4279 43.26L93.2979 36.99H99.4179L92.9079 46.71L99.8679 57ZM119.992 57H114.832V48.96H106.522V57H101.362V36.99H106.522V44.46H114.832V36.99H119.992V57ZM128.668 57H122.758L126.838 49.65C124.948 48.99 122.818 47.13 122.818 43.65C122.818 39.93 125.368 36.99 129.808 36.99H139.828V57H134.638V50.28H131.998L128.668 57ZM130.558 45.78H134.638V41.49H130.558C129.208 41.49 128.098 42.27 128.098 43.62C128.098 45.03 129.208 45.78 130.558 45.78Z" fill="white"/>
<path d="M84.5303 165H79.0703L76.0403 152.46L73.0103 165H67.5503L61.8203 144.99H67.6103L70.6403 158.34L74.0603 144.99H78.0203L81.4403 158.34L84.4403 144.99H90.2603L84.5303 165ZM101.09 165.36C94.9408 165.36 90.2608 161.16 90.2608 155.01C90.2608 148.83 94.9408 144.66 101.09 144.66C105.92 144.66 108.5 147.39 109.82 150.03L105.38 152.13C104.72 150.54 103.01 149.22 101.09 149.22C97.8208 149.22 95.5108 151.74 95.5108 155.01C95.5108 158.28 97.8208 160.8 101.09 160.8C103.01 160.8 104.72 159.48 105.38 157.89L109.82 159.99C108.53 162.57 105.92 165.36 101.09 165.36Z" fill="white"/>
<path d="M34.3457 203.845V199.9C35.3057 199.75 35.8757 199.345 36.1607 197.065L36.7607 191.995H44.2157V199.75H45.1157V203.845H42.5207V202H36.9257V203.845H34.3457ZM38.7257 197.26C38.5907 198.385 38.2007 199.18 37.6307 199.75H41.6357V194.245H39.0857L38.7257 197.26ZM48.7139 202H46.2239V191.995H48.8039V197.89L52.8539 191.995H55.5239V202H52.9289V195.82L48.7139 202ZM63.1775 202H57.3275V191.995H62.9975C64.9775 191.995 65.9225 193.285 65.9225 194.545C65.9225 195.79 65.1575 196.63 64.2125 196.84C65.2775 197.005 66.1175 198.025 66.1175 199.285C66.1175 200.74 65.1425 202 63.1775 202ZM62.4125 195.835C62.9375 195.835 63.2975 195.49 63.2975 194.995C63.2975 194.515 62.9375 194.17 62.4125 194.17H59.9075V195.835H62.4125ZM62.5025 199.825C63.1175 199.825 63.4925 199.465 63.4925 198.925C63.4925 198.43 63.1325 198.025 62.5025 198.025H59.9075V199.825H62.5025ZM77.2428 202H74.3178L73.8228 200.56H69.8778L69.3828 202H66.4578L70.2228 191.995H73.4628L77.2428 202ZM73.1178 198.31L71.8428 194.545L70.5678 198.31H73.1178ZM87.2968 202H84.7168V197.98H80.5618V202H77.9818V191.995H80.5618V195.73H84.7168V191.995H87.2968V202Z" fill="white"/>
<path d="M700.346 206.845V202.9C701.306 202.75 701.876 202.345 702.161 200.065L702.761 194.995H710.216V202.75H711.116V206.845H708.521V205H702.926V206.845H700.346ZM704.726 200.26C704.591 201.385 704.201 202.18 703.631 202.75H707.636V197.245H705.086L704.726 200.26ZM714.714 205H712.224V194.995H714.804V200.89L718.854 194.995H721.524V205H718.929V198.82L714.714 205ZM729.178 205H723.328V194.995H728.998C730.978 194.995 731.923 196.285 731.923 197.545C731.923 198.79 731.158 199.63 730.213 199.84C731.278 200.005 732.118 201.025 732.118 202.285C732.118 203.74 731.143 205 729.178 205ZM728.413 198.835C728.938 198.835 729.298 198.49 729.298 197.995C729.298 197.515 728.938 197.17 728.413 197.17H725.908V198.835H728.413ZM728.503 202.825C729.118 202.825 729.493 202.465 729.493 201.925C729.493 201.43 729.133 201.025 728.503 201.025H725.908V202.825H728.503ZM743.243 205H740.318L739.823 203.56H735.878L735.383 205H732.458L736.223 194.995H739.463L743.243 205ZM739.118 201.31L737.843 197.545L736.568 201.31H739.118ZM753.297 205H750.717V200.98H746.562V205H743.982V194.995H746.562V198.73H750.717V194.995H753.297V205Z" fill="white"/>
<path d="M79 87.5H40" stroke="white"/>
<path d="M10 183V303H40.5V213.5H143V183" stroke="white"/>
<path d="M79.3409 310V293.29L76.1309 296.68L74.6309 295.15L79.6409 289.99H81.8309V310H79.3409ZM85.7869 310V308.02C87.5869 306.6 89.1769 305.32 90.5569 304.18C91.9369 303.02 93.0969 301.95 94.0369 300.97C94.9769 299.97 95.6869 299.04 96.1669 298.18C96.6469 297.3 96.8869 296.43 96.8869 295.57C96.8869 294.93 96.7669 294.38 96.5269 293.92C96.2869 293.46 95.9669 293.08 95.5669 292.78C95.1869 292.48 94.7469 292.26 94.2469 292.12C93.7469 291.98 93.2369 291.91 92.7169 291.91C91.5169 291.91 90.4569 292.14 89.5369 292.6C88.6169 293.06 87.8669 293.67 87.2869 294.43L85.7569 292.84C86.5169 291.82 87.5069 291.04 88.7269 290.5C89.9669 289.96 91.2969 289.69 92.7169 289.69C93.5569 289.69 94.3769 289.81 95.1769 290.05C95.9769 290.29 96.6869 290.65 97.3069 291.13C97.9469 291.61 98.4569 292.22 98.8369 292.96C99.2369 293.7 99.4369 294.57 99.4369 295.57C99.4369 296.59 99.1869 297.6 98.6869 298.6C98.2069 299.58 97.5269 300.57 96.6469 301.57C95.7869 302.55 94.7669 303.56 93.5869 304.6C92.4069 305.62 91.1169 306.68 89.7169 307.78H99.5269V310H85.7869Z" fill="white"/>
<path d="M218.63 314L226.7 296.21H215.93V293.99H229.58V295.7L221.39 314H218.63Z" fill="white"/>
<path d="M223.731 391.36C222.731 391.36 221.791 391.24 220.911 391C220.051 390.76 219.301 390.41 218.661 389.95C218.021 389.47 217.511 388.9 217.131 388.24C216.751 387.56 216.561 386.79 216.561 385.93C216.561 385.27 216.691 384.66 216.951 384.1C217.211 383.54 217.561 383.04 218.001 382.6C218.441 382.14 218.951 381.75 219.531 381.43C220.111 381.11 220.711 380.86 221.331 380.68C220.751 380.52 220.191 380.3 219.651 380.02C219.131 379.74 218.661 379.41 218.241 379.03C217.841 378.63 217.511 378.17 217.251 377.65C217.011 377.13 216.891 376.54 216.891 375.88C216.891 374.98 217.091 374.21 217.491 373.57C217.891 372.91 218.411 372.37 219.051 371.95C219.711 371.51 220.441 371.19 221.241 370.99C222.061 370.79 222.891 370.69 223.731 370.69C224.551 370.69 225.371 370.79 226.191 370.99C227.011 371.19 227.741 371.51 228.381 371.95C229.041 372.37 229.571 372.91 229.971 373.57C230.391 374.21 230.601 374.98 230.601 375.88C230.601 376.54 230.471 377.13 230.211 377.65C229.971 378.17 229.641 378.63 229.221 379.03C228.821 379.41 228.351 379.74 227.811 380.02C227.271 380.3 226.711 380.52 226.131 380.68C226.751 380.86 227.351 381.11 227.931 381.43C228.511 381.75 229.021 382.14 229.461 382.6C229.901 383.04 230.251 383.54 230.511 384.1C230.771 384.66 230.901 385.27 230.901 385.93C230.901 386.77 230.711 387.53 230.331 388.21C229.951 388.89 229.431 389.46 228.771 389.92C228.131 390.38 227.371 390.74 226.491 391C225.631 391.24 224.711 391.36 223.731 391.36ZM223.731 379.66C224.031 379.6 224.431 379.51 224.931 379.39C225.431 379.25 225.911 379.05 226.371 378.79C226.831 378.51 227.231 378.16 227.571 377.74C227.911 377.32 228.081 376.81 228.081 376.21C228.081 375.69 227.961 375.23 227.721 374.83C227.501 374.41 227.191 374.06 226.791 373.78C226.411 373.5 225.951 373.29 225.411 373.15C224.891 372.99 224.331 372.91 223.731 372.91C223.131 372.91 222.561 372.99 222.021 373.15C221.501 373.29 221.041 373.5 220.641 373.78C220.261 374.06 219.951 374.41 219.711 374.83C219.491 375.23 219.381 375.69 219.381 376.21C219.381 376.81 219.551 377.32 219.891 377.74C220.231 378.16 220.631 378.51 221.091 378.79C221.571 379.05 222.051 379.25 222.531 379.39C223.031 379.51 223.431 379.6 223.731 379.66ZM223.731 389.14C224.351 389.14 224.941 389.06 225.501 388.9C226.061 388.74 226.551 388.51 226.971 388.21C227.411 387.91 227.751 387.55 227.991 387.13C228.251 386.69 228.381 386.2 228.381 385.66C228.381 385 228.191 384.44 227.811 383.98C227.451 383.5 227.021 383.11 226.521 382.81C226.021 382.49 225.501 382.25 224.961 382.09C224.441 381.93 224.031 381.83 223.731 381.79C223.431 381.83 223.011 381.93 222.471 382.09C221.951 382.25 221.431 382.49 220.911 382.81C220.411 383.11 219.971 383.5 219.591 383.98C219.231 384.44 219.051 385 219.051 385.66C219.051 386.2 219.171 386.69 219.411 387.13C219.671 387.55 220.011 387.91 220.431 388.21C220.871 388.51 221.371 388.74 221.931 388.9C222.511 389.06 223.111 389.14 223.731 389.14Z" fill="white"/>
<path d="M746.152 291H779V183H671V216.465H746.152V291Z" stroke="white"/>
<path d="M152 87.5H177V5L10 8V87.5M152 87.5V123.5M152 87.5H115M10 87.5V123.5M10 87.5H41V123.5M152 123.5H177V182.5H10V123.5M152 123.5H115M115 87.5V123.5M115 87.5H79V123.5M10 123.5H41M115 123.5H79M41 123.5H79" stroke="white"/>
<path d="M236.5 317.5H173.5V354.5H236.5V317.5Z" fill="#5DD6FF" stroke="#0026FF"/>
<path d="M156.5 392.5V455.5H193.5V392.5H156.5Z" fill="#5DD6FF" stroke="#0026FF"/>
<path d="M619.5 240.5H556.5V277.5H619.5V240.5Z" fill="#5DD6FF" stroke="#0026FF"/>
<path d="M524.5 310.5V373.5H561.5V310.5H524.5Z" fill="#5DD6FF" stroke="#0026FF"/>
<path d="M598.5 362.5V425.5H635.5V362.5H598.5Z" fill="#5DD6FF" stroke="#0026FF"/>
<path d="M588.031 269.36C586.331 269.36 584.92 269.08 583.8 268.52C582.68 267.94 581.74 267.15 580.98 266.15L582.51 264.5C583.17 265.34 583.94 265.99 584.82 266.45C585.72 266.91 586.791 267.14 588.031 267.14C588.711 267.14 589.331 267.03 589.891 266.81C590.471 266.59 590.96 266.29 591.36 265.91C591.76 265.53 592.07 265.08 592.29 264.56C592.53 264.02 592.651 263.45 592.651 262.85C592.651 262.19 592.53 261.6 592.29 261.08C592.07 260.54 591.76 260.08 591.36 259.7C590.96 259.32 590.48 259.03 589.92 258.83C589.36 258.63 588.74 258.53 588.06 258.53C587.16 258.53 586.33 258.68 585.57 258.98C584.83 259.28 584.12 259.76 583.44 260.42L581.61 259.79V248.99H593.85V251.21H584.1V258.17C584.58 257.69 585.221 257.27 586.021 256.91C586.841 256.55 587.761 256.37 588.781 256.37C589.621 256.37 590.42 256.51 591.18 256.79C591.94 257.07 592.61 257.48 593.19 258.02C593.79 258.56 594.26 259.23 594.6 260.03C594.96 260.83 595.141 261.74 595.141 262.76C595.141 263.78 594.96 264.7 594.6 265.52C594.24 266.34 593.74 267.04 593.1 267.62C592.46 268.18 591.7 268.61 590.82 268.91C589.96 269.21 589.031 269.36 588.031 269.36Z" fill="white"/>
<path d="M543.239 351.36C541.839 351.36 540.649 351.08 539.669 350.52C538.689 349.94 537.889 349.18 537.269 348.24C536.669 347.28 536.229 346.18 535.949 344.94C535.669 343.7 535.529 342.4 535.529 341.04C535.529 339.68 535.689 338.38 536.009 337.14C536.329 335.88 536.819 334.78 537.479 333.84C538.159 332.88 539.009 332.12 540.029 331.56C541.049 330.98 542.259 330.69 543.659 330.69C544.959 330.69 546.049 330.92 546.929 331.38C547.829 331.82 548.589 332.39 549.209 333.09L547.949 334.95C547.429 334.35 546.849 333.86 546.209 333.48C545.569 333.1 544.719 332.91 543.659 332.91C542.699 332.91 541.859 333.14 541.139 333.6C540.439 334.04 539.849 334.63 539.369 335.37C538.909 336.11 538.569 336.95 538.349 337.89C538.129 338.83 538.019 339.79 538.019 340.77C538.019 340.91 538.019 341.04 538.019 341.16C538.019 341.28 538.029 341.41 538.049 341.55C538.269 341.21 538.559 340.86 538.919 340.5C539.299 340.12 539.739 339.78 540.239 339.48C540.739 339.18 541.279 338.93 541.859 338.73C542.459 338.53 543.079 338.43 543.719 338.43C544.619 338.43 545.459 338.57 546.239 338.85C547.039 339.11 547.739 339.51 548.339 340.05C548.939 340.57 549.409 341.23 549.749 342.03C550.089 342.83 550.259 343.76 550.259 344.82C550.259 345.7 550.099 346.54 549.779 347.34C549.459 348.12 548.999 348.81 548.399 349.41C547.799 350.01 547.059 350.49 546.179 350.85C545.319 351.19 544.339 351.36 543.239 351.36ZM543.149 349.14C543.929 349.14 544.599 349.01 545.159 348.75C545.739 348.49 546.219 348.16 546.599 347.76C546.979 347.34 547.259 346.88 547.439 346.38C547.639 345.88 547.739 345.39 547.739 344.91C547.739 344.17 547.619 343.53 547.379 342.99C547.139 342.45 546.809 342 546.389 341.64C545.969 341.28 545.479 341.02 544.919 340.86C544.359 340.68 543.759 340.59 543.119 340.59C542.119 340.59 541.169 340.87 540.269 341.43C539.389 341.97 538.669 342.69 538.109 343.59C538.169 344.21 538.299 344.85 538.499 345.51C538.719 346.17 539.019 346.77 539.399 347.31C539.799 347.85 540.299 348.29 540.899 348.63C541.519 348.97 542.269 349.14 543.149 349.14Z" fill="white"/>
<path d="M618.471 400V394.93H608.961V392.86L617.541 379.99H620.961V392.74H623.781V394.93H620.961V400H618.471ZM618.471 382.3L611.451 392.74H618.471V382.3Z" fill="white"/>
<path d="M236.5 246.5H173.5V283.5H236.5V246.5Z" fill="#5DD6FF" stroke="#0026FF"/>
<path d="M133.5 239.5H59.5V281.5H133.5V239.5Z" fill="#5DD6FF" stroke="#0026FF"/>
<path d="M96.5 346.5H22.5V388.5H96.5V346.5Z" fill="#5DD6FF" stroke="#0026FF"/>
<path d="M133.5 453.5H59.5V495.5H133.5V453.5Z" fill="#5DD6FF" stroke="#0026FF"/>
<path d="M204.731 346.36C203.731 346.36 202.791 346.24 201.911 346C201.051 345.76 200.301 345.41 199.661 344.95C199.021 344.47 198.511 343.9 198.131 343.24C197.751 342.56 197.561 341.79 197.561 340.93C197.561 340.27 197.691 339.66 197.951 339.1C198.211 338.54 198.561 338.04 199.001 337.6C199.441 337.14 199.951 336.75 200.531 336.43C201.111 336.11 201.711 335.86 202.331 335.68C201.751 335.52 201.191 335.3 200.651 335.02C200.131 334.74 199.661 334.41 199.241 334.03C198.841 333.63 198.511 333.17 198.251 332.65C198.011 332.13 197.891 331.54 197.891 330.88C197.891 329.98 198.091 329.21 198.491 328.57C198.891 327.91 199.411 327.37 200.051 326.95C200.711 326.51 201.441 326.19 202.241 325.99C203.061 325.79 203.891 325.69 204.731 325.69C205.551 325.69 206.371 325.79 207.191 325.99C208.011 326.19 208.741 326.51 209.381 326.95C210.041 327.37 210.571 327.91 210.971 328.57C211.391 329.21 211.601 329.98 211.601 330.88C211.601 331.54 211.471 332.13 211.211 332.65C210.971 333.17 210.641 333.63 210.221 334.03C209.821 334.41 209.351 334.74 208.811 335.02C208.271 335.3 207.711 335.52 207.131 335.68C207.751 335.86 208.351 336.11 208.931 336.43C209.511 336.75 210.021 337.14 210.461 337.6C210.901 338.04 211.251 338.54 211.511 339.1C211.771 339.66 211.901 340.27 211.901 340.93C211.901 341.77 211.711 342.53 211.331 343.21C210.951 343.89 210.431 344.46 209.771 344.92C209.131 345.38 208.371 345.74 207.491 346C206.631 346.24 205.711 346.36 204.731 346.36ZM204.731 334.66C205.031 334.6 205.431 334.51 205.931 334.39C206.431 334.25 206.911 334.05 207.371 333.79C207.831 333.51 208.231 333.16 208.571 332.74C208.911 332.32 209.081 331.81 209.081 331.21C209.081 330.69 208.961 330.23 208.721 329.83C208.501 329.41 208.191 329.06 207.791 328.78C207.411 328.5 206.951 328.29 206.411 328.15C205.891 327.99 205.331 327.91 204.731 327.91C204.131 327.91 203.561 327.99 203.021 328.15C202.501 328.29 202.041 328.5 201.641 328.78C201.261 329.06 200.951 329.41 200.711 329.83C200.491 330.23 200.381 330.69 200.381 331.21C200.381 331.81 200.551 332.32 200.891 332.74C201.231 333.16 201.631 333.51 202.091 333.79C202.571 334.05 203.051 334.25 203.531 334.39C204.031 334.51 204.431 334.6 204.731 334.66ZM204.731 344.14C205.351 344.14 205.941 344.06 206.501 343.9C207.061 343.74 207.551 343.51 207.971 343.21C208.411 342.91 208.751 342.55 208.991 342.13C209.251 341.69 209.381 341.2 209.381 340.66C209.381 340 209.191 339.44 208.811 338.98C208.451 338.5 208.021 338.11 207.521 337.81C207.021 337.49 206.501 337.25 205.961 337.09C205.441 336.93 205.031 336.83 204.731 336.79C204.431 336.83 204.011 336.93 203.471 337.09C202.951 337.25 202.431 337.49 201.911 337.81C201.411 338.11 200.971 338.5 200.591 338.98C200.231 339.44 200.051 340 200.051 340.66C200.051 341.2 200.171 341.69 200.411 342.13C200.671 342.55 201.011 342.91 201.431 343.21C201.871 343.51 202.371 343.74 202.931 343.9C203.511 344.06 204.111 344.14 204.731 344.14Z" fill="white"/>
<path d="M174.071 433.33C172.791 433.33 171.701 433.11 170.801 432.67C169.921 432.23 169.161 431.65 168.521 430.93L169.781 429.07C170.301 429.67 170.881 430.16 171.521 430.54C172.181 430.92 173.031 431.11 174.071 431.11C175.091 431.11 175.951 430.88 176.651 430.42C177.371 429.96 177.951 429.36 178.391 428.62C178.851 427.88 179.181 427.04 179.381 426.1C179.601 425.16 179.711 424.22 179.711 423.28C179.711 423.14 179.711 423.01 179.711 422.89C179.711 422.75 179.701 422.61 179.681 422.47C179.461 422.81 179.161 423.17 178.781 423.55C178.421 423.91 177.991 424.24 177.491 424.54C176.991 424.84 176.451 425.09 175.871 425.29C175.291 425.49 174.681 425.59 174.041 425.59C173.141 425.59 172.291 425.46 171.491 425.2C170.691 424.92 169.991 424.52 169.391 424C168.811 423.46 168.341 422.79 167.981 421.99C167.641 421.19 167.471 420.26 167.471 419.2C167.471 418.34 167.631 417.52 167.951 416.74C168.271 415.94 168.731 415.24 169.331 414.64C169.931 414.04 170.661 413.56 171.521 413.2C172.401 412.84 173.381 412.66 174.461 412.66C175.861 412.66 177.051 412.95 178.031 413.53C179.011 414.09 179.811 414.85 180.431 415.81C181.051 416.75 181.501 417.85 181.781 419.11C182.061 420.35 182.201 421.65 182.201 423.01C182.201 424.37 182.041 425.67 181.721 426.91C181.401 428.15 180.901 429.25 180.221 430.21C179.561 431.15 178.721 431.91 177.701 432.49C176.681 433.05 175.471 433.33 174.071 433.33ZM174.611 423.43C175.611 423.43 176.561 423.16 177.461 422.62C178.361 422.08 179.071 421.36 179.591 420.46C179.531 419.84 179.401 419.2 179.201 418.54C179.001 417.88 178.701 417.28 178.301 416.74C177.921 416.2 177.421 415.76 176.801 415.42C176.181 415.06 175.441 414.88 174.581 414.88C173.821 414.88 173.151 415.01 172.571 415.27C171.991 415.53 171.511 415.87 171.131 416.29C170.751 416.69 170.461 417.14 170.261 417.64C170.081 418.14 169.991 418.63 169.991 419.11C169.991 419.85 170.111 420.49 170.351 421.03C170.591 421.57 170.921 422.02 171.341 422.38C171.761 422.74 172.251 423.01 172.811 423.19C173.371 423.35 173.971 423.43 174.611 423.43Z" fill="white"/>
<path d="M199.63 274L207.7 256.21H196.93V253.99H210.58V255.7L202.39 274H199.63Z" fill="white"/>
<path d="M88.3409 270V253.29L85.1309 256.68L83.6309 255.15L88.6409 249.99H90.8309V270H88.3409ZM94.7869 270V268.02C96.5869 266.6 98.1769 265.32 99.5569 264.18C100.937 263.02 102.097 261.95 103.037 260.97C103.977 259.97 104.687 259.04 105.167 258.18C105.647 257.3 105.887 256.43 105.887 255.57C105.887 254.93 105.767 254.38 105.527 253.92C105.287 253.46 104.967 253.08 104.567 252.78C104.187 252.48 103.747 252.26 103.247 252.12C102.747 251.98 102.237 251.91 101.717 251.91C100.517 251.91 99.4569 252.14 98.5369 252.6C97.6169 253.06 96.8669 253.67 96.2869 254.43L94.7569 252.84C95.5169 251.82 96.5069 251.04 97.7269 250.5C98.9669 249.96 100.297 249.69 101.717 249.69C102.557 249.69 103.377 249.81 104.177 250.05C104.977 250.29 105.687 250.65 106.307 251.13C106.947 251.61 107.457 252.22 107.837 252.96C108.237 253.7 108.437 254.57 108.437 255.57C108.437 256.59 108.187 257.6 107.687 258.6C107.207 259.58 106.527 260.57 105.647 261.57C104.787 262.55 103.767 263.56 102.587 264.6C101.407 265.62 100.117 266.68 98.7169 267.78H108.527V270H94.7869Z" fill="white"/>
<path d="M54.3409 377V360.29L51.1309 363.68L49.6309 362.15L54.6409 356.99H56.8309V377H54.3409ZM64.5069 377V360.29L61.2969 363.68L59.7969 362.15L64.8069 356.99H66.9969V377H64.5069Z" fill="white"/>
<path d="M91.3409 484V467.29L88.1309 470.68L86.6309 469.15L91.6409 463.99H93.8309V484H91.3409ZM105.347 484.36C103.967 484.36 102.797 484.05 101.837 483.43C100.877 482.81 100.087 482.01 99.4669 481.03C98.8469 480.03 98.3969 478.92 98.1169 477.7C97.8369 476.46 97.6969 475.23 97.6969 474.01C97.6969 472.79 97.8369 471.57 98.1169 470.35C98.3969 469.11 98.8469 468 99.4669 467.02C100.087 466.04 100.877 465.24 101.837 464.62C102.797 464 103.967 463.69 105.347 463.69C106.707 463.69 107.867 464 108.827 464.62C109.807 465.24 110.597 466.04 111.197 467.02C111.817 468 112.267 469.11 112.547 470.35C112.847 471.57 112.997 472.79 112.997 474.01C112.997 475.23 112.847 476.46 112.547 477.7C112.267 478.92 111.817 480.03 111.197 481.03C110.597 482.01 109.807 482.81 108.827 483.43C107.867 484.05 106.707 484.36 105.347 484.36ZM105.347 482.14C106.307 482.14 107.107 481.91 107.747 481.45C108.407 480.97 108.937 480.35 109.337 479.59C109.737 478.81 110.017 477.94 110.177 476.98C110.357 476 110.447 475.01 110.447 474.01C110.447 473.01 110.357 472.03 110.177 471.07C110.017 470.09 109.737 469.22 109.337 468.46C108.937 467.7 108.407 467.09 107.747 466.63C107.107 466.15 106.307 465.91 105.347 465.91C104.387 465.91 103.577 466.15 102.917 466.63C102.277 467.09 101.757 467.7 101.357 468.46C100.957 469.22 100.667 470.09 100.487 471.07C100.327 472.03 100.247 473.01 100.247 474.01C100.247 475.01 100.327 476 100.487 476.98C100.667 477.94 100.957 478.81 101.357 479.59C101.757 480.35 102.277 480.97 102.917 481.45C103.577 481.91 104.387 482.14 105.347 482.14Z" fill="white"/>
<path d="M360.5 196.5H324.5V232.5H360.5V196.5Z" fill="#5DD6FF" stroke="#0026FF"/>
<path d="M411.5 145.5H375.5V181.5H411.5V145.5Z" fill="#5DD6FF" stroke="#0026FF"/>
<path d="M726.5 237.5H654.5V281.5H726.5V237.5Z" fill="#5DD6FF" stroke="#0026FF"/>
<path d="M763.5 346.5H691.5V390.5H763.5V346.5Z" fill="#5DD6FF" stroke="#0026FF"/>
<path d="M727.5 453.5H655.5V497.5H727.5V453.5Z" fill="#5DD6FF" stroke="#0026FF"/>
<path d="M464.5 196.5H428.5V232.5H464.5V196.5Z" fill="#5DD6FF" stroke="#0026FF"/>
<path d="M335.45 223V209.075L332.775 211.9L331.525 210.625L335.7 206.325H337.525V223H335.45ZM346.122 223.3C344.705 223.3 343.488 223.033 342.472 222.5C341.472 221.95 340.713 221.3 340.197 220.55L341.422 219.25C341.905 219.9 342.547 220.433 343.347 220.85C344.163 221.25 345.072 221.45 346.072 221.45C347.288 221.45 348.238 221.175 348.922 220.625C349.622 220.058 349.972 219.292 349.972 218.325C349.972 217.808 349.872 217.367 349.672 217C349.472 216.617 349.188 216.308 348.822 216.075C348.455 215.842 348.013 215.667 347.497 215.55C346.997 215.433 346.438 215.375 345.822 215.375C345.472 215.375 345.13 215.375 344.797 215.375C344.463 215.375 344.23 215.383 344.097 215.4V213.5C344.23 213.517 344.463 213.525 344.797 213.525C345.147 213.525 345.488 213.525 345.822 213.525C346.338 213.525 346.83 213.475 347.297 213.375C347.78 213.258 348.197 213.092 348.547 212.875C348.897 212.642 349.172 212.358 349.372 212.025C349.588 211.675 349.697 211.258 349.697 210.775C349.697 210.308 349.597 209.9 349.397 209.55C349.197 209.2 348.93 208.908 348.597 208.675C348.263 208.425 347.863 208.242 347.397 208.125C346.947 207.992 346.472 207.925 345.972 207.925C345.055 207.925 344.247 208.1 343.547 208.45C342.847 208.783 342.188 209.283 341.572 209.95L340.422 208.65C341.022 207.917 341.797 207.308 342.747 206.825C343.697 206.325 344.822 206.075 346.122 206.075C346.922 206.075 347.663 206.175 348.347 206.375C349.047 206.575 349.647 206.867 350.147 207.25C350.647 207.617 351.038 208.083 351.322 208.65C351.622 209.2 351.772 209.825 351.772 210.525C351.772 211.125 351.655 211.65 351.422 212.1C351.205 212.55 350.922 212.933 350.572 213.25C350.222 213.567 349.83 213.825 349.397 214.025C348.98 214.208 348.572 214.333 348.172 214.4C348.555 214.433 348.972 214.542 349.422 214.725C349.872 214.908 350.288 215.167 350.672 215.5C351.055 215.833 351.372 216.25 351.622 216.75C351.888 217.25 352.022 217.833 352.022 218.5C352.022 219.2 351.888 219.842 351.622 220.425C351.355 221.008 350.963 221.517 350.447 221.95C349.947 222.367 349.33 222.7 348.597 222.95C347.863 223.183 347.038 223.3 346.122 223.3Z" fill="white"/>
<path d="M386.45 172V158.075L383.775 160.9L382.525 159.625L386.7 155.325H388.525V172H386.45ZM399.197 172V167.775H391.272V166.05L398.422 155.325H401.272V165.95H403.622V167.775H401.272V172H399.197ZM399.197 157.25L393.347 165.95H399.197V157.25Z" fill="white"/>
<path d="M439.45 223V209.075L436.775 211.9L435.525 210.625L439.7 206.325H441.525V223H439.45ZM450.997 223.3C449.58 223.3 448.405 223.067 447.472 222.6C446.538 222.117 445.755 221.458 445.122 220.625L446.397 219.25C446.947 219.95 447.588 220.492 448.322 220.875C449.072 221.258 449.963 221.45 450.997 221.45C451.563 221.45 452.08 221.358 452.547 221.175C453.03 220.992 453.438 220.742 453.772 220.425C454.105 220.108 454.363 219.733 454.547 219.3C454.747 218.85 454.847 218.375 454.847 217.875C454.847 217.325 454.747 216.833 454.547 216.4C454.363 215.95 454.105 215.567 453.772 215.25C453.438 214.933 453.038 214.692 452.572 214.525C452.105 214.358 451.588 214.275 451.022 214.275C450.272 214.275 449.58 214.4 448.947 214.65C448.33 214.9 447.738 215.3 447.172 215.85L445.647 215.325V206.325H455.847V208.175H447.722V213.975C448.122 213.575 448.655 213.225 449.322 212.925C450.005 212.625 450.772 212.475 451.622 212.475C452.322 212.475 452.988 212.592 453.622 212.825C454.255 213.058 454.813 213.4 455.297 213.85C455.797 214.3 456.188 214.858 456.472 215.525C456.772 216.192 456.922 216.95 456.922 217.8C456.922 218.65 456.772 219.417 456.472 220.1C456.172 220.783 455.755 221.367 455.222 221.85C454.688 222.317 454.055 222.675 453.322 222.925C452.605 223.175 451.83 223.3 450.997 223.3Z" fill="white"/>
<path d="M690.341 269V252.29L687.131 255.68L685.631 254.15L690.641 248.99H692.831V269H690.341Z" fill="white"/>
<path d="M720.62 378V376.02C722.42 374.6 724.01 373.32 725.39 372.18C726.77 371.02 727.93 369.95 728.87 368.97C729.81 367.97 730.52 367.04 731 366.18C731.48 365.3 731.72 364.43 731.72 363.57C731.72 362.93 731.6 362.38 731.36 361.92C731.12 361.46 730.8 361.08 730.4 360.78C730.02 360.48 729.58 360.26 729.08 360.12C728.58 359.98 728.07 359.91 727.55 359.91C726.35 359.91 725.29 360.14 724.37 360.6C723.45 361.06 722.7 361.67 722.12 362.43L720.59 360.84C721.35 359.82 722.34 359.04 723.56 358.5C724.8 357.96 726.13 357.69 727.55 357.69C728.39 357.69 729.21 357.81 730.01 358.05C730.81 358.29 731.52 358.65 732.14 359.13C732.78 359.61 733.29 360.22 733.67 360.96C734.07 361.7 734.27 362.57 734.27 363.57C734.27 364.59 734.02 365.6 733.52 366.6C733.04 367.58 732.36 368.57 731.48 369.57C730.62 370.55 729.6 371.56 728.42 372.6C727.24 373.62 725.95 374.68 724.55 375.78H734.36V378H720.62Z" fill="white"/>
<path d="M690.979 485.36C689.279 485.36 687.819 485.04 686.599 484.4C685.399 483.74 684.489 482.96 683.869 482.06L685.339 480.5C685.919 481.28 686.689 481.92 687.649 482.42C688.629 482.9 689.719 483.14 690.919 483.14C692.379 483.14 693.519 482.81 694.339 482.15C695.179 481.47 695.599 480.55 695.599 479.39C695.599 478.77 695.479 478.24 695.239 477.8C694.999 477.34 694.659 476.97 694.219 476.69C693.779 476.41 693.249 476.2 692.629 476.06C692.029 475.92 691.359 475.85 690.619 475.85C690.199 475.85 689.789 475.85 689.389 475.85C688.989 475.85 688.709 475.86 688.549 475.88V473.6C688.709 473.62 688.989 473.63 689.389 473.63C689.809 473.63 690.219 473.63 690.619 473.63C691.239 473.63 691.829 473.57 692.389 473.45C692.969 473.31 693.469 473.11 693.889 472.85C694.309 472.57 694.639 472.23 694.879 471.83C695.139 471.41 695.269 470.91 695.269 470.33C695.269 469.77 695.149 469.28 694.909 468.86C694.669 468.44 694.349 468.09 693.949 467.81C693.549 467.51 693.069 467.29 692.509 467.15C691.969 466.99 691.399 466.91 690.799 466.91C689.699 466.91 688.729 467.12 687.889 467.54C687.049 467.94 686.259 468.54 685.519 469.34L684.139 467.78C684.859 466.9 685.789 466.17 686.929 465.59C688.069 464.99 689.419 464.69 690.979 464.69C691.939 464.69 692.829 464.81 693.649 465.05C694.489 465.29 695.209 465.64 695.809 466.1C696.409 466.54 696.879 467.1 697.219 467.78C697.579 468.44 697.759 469.19 697.759 470.03C697.759 470.75 697.619 471.38 697.339 471.92C697.079 472.46 696.739 472.92 696.319 473.3C695.899 473.68 695.429 473.99 694.909 474.23C694.409 474.45 693.919 474.6 693.439 474.68C693.899 474.72 694.399 474.85 694.939 475.07C695.479 475.29 695.979 475.6 696.439 476C696.899 476.4 697.279 476.9 697.579 477.5C697.899 478.1 698.059 478.8 698.059 479.6C698.059 480.44 697.899 481.21 697.579 481.91C697.259 482.61 696.789 483.22 696.169 483.74C695.569 484.24 694.829 484.64 693.949 484.94C693.069 485.22 692.079 485.36 690.979 485.36Z" fill="white"/>
<path d="M58.5 319H22.5C22.5 319 23.5 338 41 338C58.5 338 58.5 319 58.5 319ZM58.5 319H94.5C94.5 319 93.5 338 78.5 338C63.5 338 58.5 319 58.5 319Z" stroke="white"/>
<path d="M727 318H691C691 318 692 337 709.5 337C727 337 727 318 727 318ZM727 318H763C763 318 762 337 747 337C732 337 727 318 727 318Z" stroke="white"/>
<path d="M586 215H550C550 215 551 234 568.5 234C586 234 586 215 586 215ZM586 215H622C622 215 621 234 606 234C591 234 586 215 586 215Z" stroke="white"/>
<path d="M641 255V219C641 219 622 220 622 237.5C622 255 641 255 641 255ZM641 255V291C641 291 622 290 622 275C622 260 641 255 641 255Z" stroke="white"/>
<path d="M59 415H22.5C22.5 415 25 397 41 397C57 397 59 415 59 415ZM59 415H95.5C95.5 415 92.5 397 78 397C63.5 397 59 415 59 415Z" stroke="white"/>
<path d="M727.5 414H691C691 414 693.5 396 709.5 396C725.5 396 727.5 414 727.5 414ZM727.5 414H764C764 414 761 396 746.5 396C732 396 727.5 414 727.5 414Z" stroke="white"/>
<path d="M114.5 515.5V548.5H8.5V443H41V515.5H114.5Z" stroke="white"/>
<path d="M671 514.5V547.5H777V442H744.5V514.5H671Z" stroke="white"/>
<path d="M182 548.5V486.5H276" stroke="white" stroke-dasharray="7 7"/>
<path d="M603 548V486H509" stroke="white" stroke-dasharray="7 7"/>
<path d="M262 551.5C262 551.5 270.5 424.5 388.5 421C506.5 417.5 525 550.5 525 550.5" stroke="white"/>
<path d="M658 43.5V69.5M658 43.5H716M658 43.5L716 69.5M658 69.5H716M658 69.5L716 43.5M716 43.5V69.5" stroke="white"/>
<path d="M316 78H297V96H316V78Z" fill="white"/>
<path d="M341 78H322V96H341V78Z" fill="white"/>
<path d="M366 78H347V96H366V78Z" fill="white"/>
<path d="M391 78H371V96H391V78Z" fill="white"/>
<path d="M416 78H396V96H416V78Z" fill="white"/>
<path d="M440 78H421V96H440V78Z" fill="white"/>
<path d="M465 78H446V96H465V78Z" fill="white"/>
<path d="M490 78H471V96H490V78Z" fill="white"/>
<path d="M532 212.5V212M532 212V178M532 212L498.5 178M532 212L498.5 212.5M532 178H498.5M532 178L498.5 212.5M498.5 178V212.5M542 222.5V168.5H488.5V222.5H542Z" stroke="white"/>
<path d="M287.5 212V211.5M287.5 211.5V177.5M287.5 211.5L254 177.5M287.5 211.5L254 212M287.5 177.5H254M287.5 177.5L254 212M254 177.5V212M297.5 222V168H244V222H297.5Z" stroke="white"/>
<path d="M305 212C307.761 212 310 209.761 310 207C310 204.239 307.761 202 305 202C302.239 202 300 204.239 300 207C300 209.761 302.239 212 305 212Z" fill="white"/>
<path d="M305 188C307.761 188 310 185.761 310 183C310 180.239 307.761 178 305 178C302.239 178 300 180.239 300 183C300 185.761 302.239 188 305 188Z" fill="white"/>
<path d="M283 166C285.761 166 288 163.761 288 161C288 158.239 285.761 156 283 156C280.239 156 278 158.239 278 161C278 163.761 280.239 166 283 166Z" fill="white"/>
<path d="M258 166C260.761 166 263 163.761 263 161C263 158.239 260.761 156 258 156C255.239 156 253 158.239 253 161C253 163.761 255.239 166 258 166Z" fill="white"/>
<path d="M237 188C239.761 188 242 185.761 242 183C242 180.239 239.761 178 237 178C234.239 178 232 180.239 232 183C232 185.761 234.239 188 237 188Z" fill="white"/>
<path d="M237 212C239.761 212 242 209.761 242 207C242 204.239 239.761 202 237 202C234.239 202 232 204.239 232 207C232 209.761 234.239 212 237 212Z" fill="white"/>
<path d="M258 234C260.761 234 263 231.761 263 229C263 226.239 260.761 224 258 224C255.239 224 253 226.239 253 229C253 231.761 255.239 234 258 234Z" fill="white"/>
<path d="M283 234C285.761 234 288 231.761 288 229C288 226.239 285.761 224 283 224C280.239 224 278 226.239 278 229C278 231.761 280.239 234 283 234Z" fill="white"/>
<path d="M342 190C344.761 190 347 187.761 347 185C347 182.239 344.761 180 342 180C339.239 180 337 182.239 337 185C337 187.761 339.239 190 342 190Z" fill="white"/>
<path d="M342 249C344.761 249 347 246.761 347 244C347 241.239 344.761 239 342 239C339.239 239 337 241.239 337 244C337 246.761 339.239 249 342 249Z" fill="white"/>
<path d="M393 197C395.761 197 398 194.761 398 192C398 189.239 395.761 187 393 187C390.239 187 388 189.239 388 192C388 194.761 390.239 197 393 197Z" fill="white"/>
<path d="M445 190C447.761 190 450 187.761 450 185C450 182.239 447.761 180 445 180C442.239 180 440 182.239 440 185C440 187.761 442.239 190 445 190Z" fill="white"/>
<path d="M481 188C483.761 188 486 185.761 486 183C486 180.239 483.761 178 481 178C478.239 178 476 180.239 476 183C476 185.761 478.239 188 481 188Z" fill="white"/>
<path d="M503 166C505.761 166 508 163.761 508 161C508 158.239 505.761 156 503 156C500.239 156 498 158.239 498 161C498 163.761 500.239 166 503 166Z" fill="white"/>
<path d="M527 166C529.761 166 532 163.761 532 161C532 158.239 529.761 156 527 156C524.239 156 522 158.239 522 161C522 163.761 524.239 166 527 166Z" fill="white"/>
<path d="M527 234C529.761 234 532 231.761 532 229C532 226.239 529.761 224 527 224C524.239 224 522 226.239 522 229C522 231.761 524.239 234 527 234Z" fill="white"/>
<path d="M503 234C505.761 234 508 231.761 508 229C508 226.239 505.761 224 503 224C500.239 224 498 226.239 498 229C498 231.761 500.239 234 503 234Z" fill="white"/>
<path d="M481 212C483.761 212 486 209.761 486 207C486 204.239 483.761 202 481 202C478.239 202 476 204.239 476 207C476 209.761 478.239 212 481 212Z" fill="white"/>
<path d="M549 188C551.761 188 554 185.761 554 183C554 180.239 551.761 178 549 178C546.239 178 544 180.239 544 183C544 185.761 546.239 188 549 188Z" fill="white"/>
<path d="M549 212C551.761 212 554 209.761 554 207C554 204.239 551.761 202 549 202C546.239 202 544 204.239 544 207C544 209.761 546.239 212 549 212Z" fill="white"/>
<path d="M543 309C545.761 309 548 306.761 548 304C548 301.239 545.761 299 543 299C540.239 299 538 301.239 538 304C538 306.761 540.239 309 543 309Z" fill="white"/>
<path d="M567 336C569.761 336 572 333.761 572 331C572 328.239 569.761 326 567 326C564.239 326 562 328.239 562 331C562 333.761 564.239 336 567 336Z" fill="white"/>
<path d="M567 363C569.761 363 572 360.761 572 358C572 355.239 569.761 353 567 353C564.239 353 562 355.239 562 358C562 360.761 564.239 363 567 363Z" fill="white"/>
<path d="M518 363C520.761 363 523 360.761 523 358C523 355.239 520.761 353 518 353C515.239 353 513 355.239 513 358C513 360.761 515.239 363 518 363Z" fill="white"/>
<path d="M518 336C520.761 336 523 333.761 523 331C523 328.239 520.761 326 518 326C515.239 326 513 328.239 513 331C513 333.761 515.239 336 518 336Z" fill="white"/>
<path d="M543 385C545.761 385 548 382.761 548 380C548 377.239 545.761 375 543 375C540.239 375 538 377.239 538 380C538 382.761 540.239 385 543 385Z" fill="white"/>
<path d="M591 385C593.761 385 596 382.761 596 380C596 377.239 593.761 375 591 375C588.239 375 586 377.239 586 380C586 382.761 588.239 385 591 385Z" fill="white"/>
<path d="M591 411C593.761 411 596 408.761 596 406C596 403.239 593.761 401 591 401C588.239 401 586 403.239 586 406C586 408.761 588.239 411 591 411Z" fill="white"/>
<path d="M617 437C619.761 437 622 434.761 622 432C622 429.239 619.761 427 617 427C614.239 427 612 429.239 612 432C612 434.761 614.239 437 617 437Z" fill="white"/>
<path d="M641 411C643.761 411 646 408.761 646 406C646 403.239 643.761 401 641 401C638.239 401 636 403.239 636 406C636 408.761 638.239 411 641 411Z" fill="white"/>
<path d="M641 385C643.761 385 646 382.761 646 380C646 377.239 643.761 375 641 375C638.239 375 636 377.239 636 380C636 382.761 638.239 385 641 385Z" fill="white"/>
<path d="M617 361C619.761 361 622 358.761 622 356C622 353.239 619.761 351 617 351C614.239 351 612 353.239 612 356C612 358.761 614.239 361 617 361Z" fill="white"/>
<path d="M445 249C447.761 249 450 246.761 450 244C450 241.239 447.761 239 445 239C442.239 239 440 241.239 440 244C440 246.761 442.239 249 445 249Z" fill="white"/>
<path d="M393 140C395.761 140 398 137.761 398 135C398 132.239 395.761 130 393 130C390.239 130 388 132.239 388 135C388 137.761 390.239 140 393 140Z" fill="white"/>
<path d="M242 269C244.761 269 247 266.761 247 264C247 261.239 244.761 259 242 259C239.239 259 237 261.239 237 264C237 266.761 239.239 269 242 269Z" fill="white"/>
<path d="M216 243C218.761 243 221 240.761 221 238C221 235.239 218.761 233 216 233C213.239 233 211 235.239 211 238C211 240.761 213.239 243 216 243Z" fill="white"/>
<path d="M216 294C218.761 294 221 291.761 221 289C221 286.239 218.761 284 216 284C213.239 284 211 286.239 211 289C211 291.761 213.239 294 216 294Z" fill="white"/>
<path d="M189 294C191.761 294 194 291.761 194 289C194 286.239 191.761 284 189 284C186.239 284 184 286.239 184 289C184 291.761 186.239 294 189 294Z" fill="white"/>
<path d="M189 243C191.761 243 194 240.761 194 238C194 235.239 191.761 233 189 233C186.239 233 184 235.239 184 238C184 240.761 186.239 243 189 243Z" fill="white"/>
<path d="M165 269C167.761 269 170 266.761 170 264C170 261.239 167.761 259 165 259C162.239 259 160 261.239 160 264C160 266.761 162.239 269 165 269Z" fill="white"/>
<path d="M165 340C167.761 340 170 337.761 170 335C170 332.239 167.761 330 165 330C162.239 330 160 332.239 160 335C160 337.761 162.239 340 165 340Z" fill="white"/>
<path d="M189 315C191.761 315 194 312.761 194 310C194 307.239 191.761 305 189 305C186.239 305 184 307.239 184 310C184 312.761 186.239 315 189 315Z" fill="white"/>
<path d="M217 315C219.761 315 222 312.761 222 310C222 307.239 219.761 305 217 305C214.239 305 212 307.239 212 310C212 312.761 214.239 315 217 315Z" fill="white"/>
<path d="M242 340C244.761 340 247 337.761 247 335C247 332.239 244.761 330 242 330C239.239 330 237 332.239 237 335C237 337.761 239.239 340 242 340Z" fill="white"/>
<path d="M216 366C218.761 366 221 363.761 221 361C221 358.239 218.761 356 216 356C213.239 356 211 358.239 211 361C211 363.761 213.239 366 216 366Z" fill="white"/>
<path d="M189 366C191.761 366 194 363.761 194 361C194 358.239 191.761 356 189 356C186.239 356 184 358.239 184 361C184 363.761 186.239 366 189 366Z" fill="white"/>
<path d="M175 392C177.761 392 180 389.761 180 387C180 384.239 177.761 382 175 382C172.239 382 170 384.239 170 387C170 389.761 172.239 392 175 392Z" fill="white"/>
<path d="M200 416C202.761 416 205 413.761 205 411C205 408.239 202.761 406 200 406C197.239 406 195 408.239 195 411C195 413.761 197.239 416 200 416Z" fill="white"/>
<path d="M200 442C202.761 442 205 439.761 205 437C205 434.239 202.761 432 200 432C197.239 432 195 434.239 195 437C195 439.761 197.239 442 200 442Z" fill="white"/>
<path d="M150 442C152.761 442 155 439.761 155 437C155 434.239 152.761 432 150 432C147.239 432 145 434.239 145 437C145 439.761 147.239 442 150 442Z" fill="white"/>
<path d="M150 416C152.761 416 155 413.761 155 411C155 408.239 152.761 406 150 406C147.239 406 145 408.239 145 411C145 413.761 147.239 416 150 416Z" fill="white"/>
<path d="M175 468C177.761 468 180 465.761 180 463C180 460.239 177.761 458 175 458C172.239 458 170 460.239 170 463C170 465.761 172.239 468 175 468Z" fill="white"/>
<path d="M700.346 538.845V534.9C701.306 534.75 701.876 534.345 702.161 532.065L702.761 526.995H710.216V534.75H711.116V538.845H708.521V537H702.926V538.845H700.346ZM704.726 532.26C704.591 533.385 704.201 534.18 703.631 534.75H707.636V529.245H705.086L704.726 532.26ZM714.714 537H712.224V526.995H714.804V532.89L718.854 526.995H721.524V537H718.929V530.82L714.714 537ZM729.178 537H723.328V526.995H728.998C730.978 526.995 731.923 528.285 731.923 529.545C731.923 530.79 731.158 531.63 730.213 531.84C731.278 532.005 732.118 533.025 732.118 534.285C732.118 535.74 731.143 537 729.178 537ZM728.413 530.835C728.938 530.835 729.298 530.49 729.298 529.995C729.298 529.515 728.938 529.17 728.413 529.17H725.908V530.835H728.413ZM728.503 534.825C729.118 534.825 729.493 534.465 729.493 533.925C729.493 533.43 729.133 533.025 728.503 533.025H725.908V534.825H728.503ZM743.243 537H740.318L739.823 535.56H735.878L735.383 537H732.458L736.223 526.995H739.463L743.243 537ZM739.118 533.31L737.843 529.545L736.568 533.31H739.118ZM753.297 537H750.717V532.98H746.562V537H743.982V526.995H746.562V530.73H750.717V526.995H753.297V537Z" fill="white"/>
<path d="M31.3457 538.845V534.9C32.3057 534.75 32.8757 534.345 33.1607 532.065L33.7607 526.995H41.2157V534.75H42.1157V538.845H39.5207V537H33.9257V538.845H31.3457ZM35.7257 532.26C35.5907 533.385 35.2007 534.18 34.6307 534.75H38.6357V529.245H36.0857L35.7257 532.26ZM45.7139 537H43.2239V526.995H45.8039V532.89L49.8539 526.995H52.5239V537H49.9289V530.82L45.7139 537ZM60.1775 537H54.3275V526.995H59.9975C61.9775 526.995 62.9225 528.285 62.9225 529.545C62.9225 530.79 62.1575 531.63 61.2125 531.84C62.2775 532.005 63.1175 533.025 63.1175 534.285C63.1175 535.74 62.1425 537 60.1775 537ZM59.4125 530.835C59.9375 530.835 60.2975 530.49 60.2975 529.995C60.2975 529.515 59.9375 529.17 59.4125 529.17H56.9075V530.835H59.4125ZM59.5025 534.825C60.1175 534.825 60.4925 534.465 60.4925 533.925C60.4925 533.43 60.1325 533.025 59.5025 533.025H56.9075V534.825H59.5025ZM74.2428 537H71.3178L70.8228 535.56H66.8778L66.3828 537H63.4578L67.2228 526.995H70.4628L74.2428 537ZM70.1178 533.31L68.8428 529.545L67.5678 533.31H70.1178ZM84.2968 537H81.7168V532.98H77.5618V537H74.9818V526.995H77.5618V530.73H81.7168V526.995H84.2968V537Z" fill="white"/>
</svg>
